<mxfile host="app.diagrams.net" modified="2023-05-19T07:48:43.167Z" agent="Mozilla/5.0 (Windows NT 10.0; Win64; x64) AppleWebKit/537.36 (KHTML, like Gecko) Chrome/113.0.0.0 Safari/537.36 Edg/113.0.1774.42" etag="qSND29E-xdzNZ5j1Pgru" version="21.3.2" type="github">
  <diagram name="第 1 页" id="7qj_PGwSNdBkG8h7UcVy">
    <mxGraphModel dx="1379" dy="1965" grid="1" gridSize="10" guides="1" tooltips="1" connect="1" arrows="1" fold="1" page="1" pageScale="1" pageWidth="827" pageHeight="1169" math="0" shadow="0">
      <root>
        <mxCell id="0" />
        <mxCell id="1" parent="0" />
        <mxCell id="nXK8JX7OWBSK3Imfuno4-12" style="rounded=0;orthogonalLoop=1;jettySize=auto;html=1;exitX=1;exitY=0.5;exitDx=0;exitDy=0;entryX=0;entryY=0.5;entryDx=0;entryDy=0;strokeWidth=5;fillColor=#b1ddf0;strokeColor=#10739e;" edge="1" parent="1" source="nXK8JX7OWBSK3Imfuno4-1" target="nXK8JX7OWBSK3Imfuno4-6">
          <mxGeometry relative="1" as="geometry" />
        </mxCell>
        <mxCell id="nXK8JX7OWBSK3Imfuno4-1" value="&lt;font style=&quot;font-size: 24px;&quot;&gt;C&lt;/font&gt;" style="ellipse;whiteSpace=wrap;html=1;aspect=fixed;strokeWidth=5;strokeColor=#10739e;shadow=0;opacity=80;snapToPoint=1;fixDash=0;metaEdit=0;backgroundOutline=0;fillColor=#b1ddf0;" vertex="1" parent="1">
          <mxGeometry x="130" y="420" width="80" height="80" as="geometry" />
        </mxCell>
        <mxCell id="nXK8JX7OWBSK3Imfuno4-9" style="rounded=0;orthogonalLoop=1;jettySize=auto;html=1;exitX=1;exitY=1;exitDx=0;exitDy=0;entryX=0;entryY=0;entryDx=0;entryDy=0;strokeWidth=5;fillColor=#b1ddf0;strokeColor=#10739e;" edge="1" parent="1" source="nXK8JX7OWBSK3Imfuno4-2" target="nXK8JX7OWBSK3Imfuno4-4">
          <mxGeometry relative="1" as="geometry" />
        </mxCell>
        <mxCell id="nXK8JX7OWBSK3Imfuno4-10" style="rounded=0;orthogonalLoop=1;jettySize=auto;html=1;exitX=1;exitY=0.5;exitDx=0;exitDy=0;entryX=0;entryY=0.5;entryDx=0;entryDy=0;strokeWidth=5;fillColor=#b1ddf0;strokeColor=#10739e;" edge="1" parent="1" source="nXK8JX7OWBSK3Imfuno4-2" target="nXK8JX7OWBSK3Imfuno4-6">
          <mxGeometry relative="1" as="geometry" />
        </mxCell>
        <mxCell id="nXK8JX7OWBSK3Imfuno4-2" value="&lt;font style=&quot;font-size: 24px;&quot;&gt;A&lt;/font&gt;" style="ellipse;whiteSpace=wrap;html=1;aspect=fixed;strokeWidth=5;strokeColor=#10739e;shadow=0;opacity=80;snapToPoint=1;fixDash=0;metaEdit=0;backgroundOutline=0;fillColor=#b1ddf0;" vertex="1" parent="1">
          <mxGeometry x="130" y="140" width="80" height="80" as="geometry" />
        </mxCell>
        <mxCell id="nXK8JX7OWBSK3Imfuno4-11" style="rounded=0;orthogonalLoop=1;jettySize=auto;html=1;exitX=1;exitY=0.5;exitDx=0;exitDy=0;entryX=0;entryY=0.5;entryDx=0;entryDy=0;strokeWidth=5;fillColor=#b1ddf0;strokeColor=#10739e;" edge="1" parent="1" source="nXK8JX7OWBSK3Imfuno4-3" target="nXK8JX7OWBSK3Imfuno4-7">
          <mxGeometry relative="1" as="geometry" />
        </mxCell>
        <mxCell id="nXK8JX7OWBSK3Imfuno4-3" value="&lt;font style=&quot;font-size: 24px;&quot;&gt;B&lt;/font&gt;" style="ellipse;whiteSpace=wrap;html=1;aspect=fixed;strokeWidth=5;strokeColor=#10739e;shadow=0;opacity=80;snapToPoint=1;fixDash=0;metaEdit=0;backgroundOutline=0;fillColor=#b1ddf0;" vertex="1" parent="1">
          <mxGeometry x="130" y="290" width="80" height="80" as="geometry" />
        </mxCell>
        <mxCell id="nXK8JX7OWBSK3Imfuno4-4" value="&lt;font style=&quot;font-size: 24px;&quot;&gt;G&lt;/font&gt;" style="ellipse;whiteSpace=wrap;html=1;aspect=fixed;strokeWidth=5;strokeColor=#10739e;shadow=0;opacity=80;snapToPoint=1;fixDash=0;metaEdit=0;backgroundOutline=0;fillColor=#b1ddf0;" vertex="1" parent="1">
          <mxGeometry x="440" y="560" width="80" height="80" as="geometry" />
        </mxCell>
        <mxCell id="nXK8JX7OWBSK3Imfuno4-13" style="rounded=0;orthogonalLoop=1;jettySize=auto;html=1;exitX=1;exitY=0.5;exitDx=0;exitDy=0;entryX=0.025;entryY=0.6;entryDx=0;entryDy=0;entryPerimeter=0;strokeWidth=5;fillColor=#b1ddf0;strokeColor=#10739e;" edge="1" parent="1" source="nXK8JX7OWBSK3Imfuno4-5" target="nXK8JX7OWBSK3Imfuno4-7">
          <mxGeometry relative="1" as="geometry" />
        </mxCell>
        <mxCell id="nXK8JX7OWBSK3Imfuno4-5" value="&lt;font style=&quot;font-size: 24px;&quot;&gt;D&lt;/font&gt;" style="ellipse;whiteSpace=wrap;html=1;aspect=fixed;strokeWidth=5;strokeColor=#10739e;shadow=0;opacity=80;snapToPoint=1;fixDash=0;metaEdit=0;backgroundOutline=0;fillColor=#b1ddf0;" vertex="1" parent="1">
          <mxGeometry x="130" y="560" width="80" height="80" as="geometry" />
        </mxCell>
        <mxCell id="nXK8JX7OWBSK3Imfuno4-6" value="&lt;font style=&quot;font-size: 24px;&quot;&gt;F&lt;/font&gt;" style="ellipse;whiteSpace=wrap;html=1;aspect=fixed;strokeWidth=5;strokeColor=#10739e;shadow=0;opacity=80;snapToPoint=1;fixDash=0;metaEdit=0;backgroundOutline=0;fillColor=#b1ddf0;" vertex="1" parent="1">
          <mxGeometry x="430" y="290" width="80" height="80" as="geometry" />
        </mxCell>
        <mxCell id="nXK8JX7OWBSK3Imfuno4-7" value="&lt;font style=&quot;font-size: 24px;&quot;&gt;E&lt;/font&gt;" style="ellipse;whiteSpace=wrap;html=1;aspect=fixed;strokeWidth=5;strokeColor=#10739e;shadow=0;opacity=80;snapToPoint=1;fixDash=0;metaEdit=0;backgroundOutline=0;fillColor=#b1ddf0;" vertex="1" parent="1">
          <mxGeometry x="430" y="140" width="80" height="80" as="geometry" />
        </mxCell>
        <mxCell id="nXK8JX7OWBSK3Imfuno4-14" value="" style="ellipse;whiteSpace=wrap;html=1;fillColor=none;strokeColor=#f5220a;strokeWidth=5;dashed=1;" vertex="1" parent="1">
          <mxGeometry x="80" y="60" width="200" height="630" as="geometry" />
        </mxCell>
        <mxCell id="nXK8JX7OWBSK3Imfuno4-15" value="" style="ellipse;whiteSpace=wrap;html=1;fillColor=none;strokeColor=#0af551;strokeWidth=5;dashed=1;" vertex="1" parent="1">
          <mxGeometry x="370" y="70" width="200" height="630" as="geometry" />
        </mxCell>
        <mxCell id="nXK8JX7OWBSK3Imfuno4-16" value="&lt;font style=&quot;font-size: 36px;&quot;&gt;V1&lt;/font&gt;" style="rounded=0;whiteSpace=wrap;html=1;fillColor=#b1ddf0;strokeColor=#10739e;" vertex="1" parent="1">
          <mxGeometry x="120" y="-20" width="120" height="60" as="geometry" />
        </mxCell>
        <mxCell id="nXK8JX7OWBSK3Imfuno4-17" value="&lt;font style=&quot;font-size: 36px;&quot;&gt;V2&lt;/font&gt;" style="rounded=0;whiteSpace=wrap;html=1;fillColor=#b1ddf0;strokeColor=#10739e;" vertex="1" parent="1">
          <mxGeometry x="410" y="-20" width="120" height="60" as="geometry" />
        </mxCell>
      </root>
    </mxGraphModel>
  </diagram>
</mxfile>
